# AST/ASF file generated using VICON BodyLanguage
# -----------------------------------------------
:version 1.10
:name VICON
:units
  mass 1.0
  length 0.45
  angle deg
:documentation
   .ast/.asf automatically generated from VICON data using
   VICON BodyBuilder and BodyLanguage model FoxedUp or BRILLIANT.MOD
:root
   order TX TY TZ RX RY RZ
   axis XYZ
   position 0 0 0  
   orientation 0 0 0 
:bonedata
  begin
     id 1 
     name lhipjoint
     direction 0.677091 -0.635792 0.370561 
     length 2.74323 
     axis 0 0 0  XYZ
  end
  begin
     id 2 
     name lfemur
     direction 0.34202 -0.939693 0  
     length 7.44995  
     axis 0 0 20  XYZ
    dof rx ry rz
    limits (-160.0 20.0)
           (-70.0 70.0)
           (-60.0 70.0)
  end
  begin
     id 3 
     name ltibia
     direction 0.34202 -0.939693 0   
     length 7.34467   
     axis 0 0 20   XYZ
    dof rx
    limits (-10.0 170.0)
  end
  begin
     id 4 
     name lfoot
     direction 0.101953 -0.280114 0.954537   
     length 1.72105   
     axis -90 7.62852e-016 20   XYZ
    dof rx rz
    limits (-45.0 90.0)
           (-70.0 20.0)
  end
  begin
     id 5 
     name ltoes
     direction 1.53537e-011 -4.21915e-011 1   
     length 0.865872   
     axis -90 7.62852e-016 20   XYZ
    dof rx
    limits (-90.0 20.0)
  end
  begin
     id 6 
     name rhipjoint
     direction -0.695735 -0.620586 0.361699   
     length 2.81045  
     axis 0 0 0  XYZ 
  end
  begin
     id 7 
     name rfemur
     direction -0.34202 -0.939693 0   
     length 7.29387   
     axis 0 0 -20   XYZ
    dof rx ry rz
    limits (-160.0 20.0)
           (-70.0 70.0)
           (-70.0 60.0)
  end
  begin
     id 8 
     name rtibia
     direction -0.34202 -0.939693 0   
     length 7.44935   
     axis 0 0 -20   XYZ
    dof rx
    limits (-10.0 170.0)
 end
 begin
     id 9 
     name rfoot
     direction -0.104163 -0.286184 0.952496   
     length 1.77731  
     axis -90 -7.62852e-016 -20   XYZ
    dof rx rz
    limits (-45.0 90.0)
           (-20.0 70.0)
  end
  begin
     id 10 
     name rtoes
     direction -1.5355e-011 -4.21888e-011 1   
     length 0.892424   
     axis -90 -7.62852e-016 -20   XYZ
    dof rx
    limits (-90.0 20.0)
  end
  begin
     id 11 
     name lowerback
     direction 0.0100202 0.997226 -0.0737589   
     length 2.16892   
     axis 0 0 0   XYZ
    dof rx ry rz
    limits (-20.0 45.0)
           (-30.0 30.0)
           (-30.0 30.0)
  end
  begin
     id 12 
     name upperback
     direction 0.00432398 0.999988 -0.00215019   
     length 2.17326   
     axis 0 0 0   XYZ
    dof rx ry rz
    limits (-20.0 45.0)
           (-30.0 30.0)
           (-30.0 30.0)
  end
  begin
     id 13 
     name thorax
     direction -0.00195047 0.999485 0.0320434   
     length 2.18139   
     axis 0 0 0   XYZ
    dof rx ry rz
    limits (-20.0 45.0)
           (-30.0 30.0)
           (-30.0 30.0)
  end
  begin
     id 14 
     name lowerneck
     direction 0.00782762 0.986241 0.165128   
     length 1.88415   
     axis 0 0 0   XYZ
    dof rx ry rz
    limits (-20.0 45.0)
           (-30.0 30.0)
           (-30.0 30.0)
  end
  begin
     id 15 
     name upperneck
     direction 0.00988667 0.981098 -0.193258   
     length 1.9242   
     axis 0 0 0   XYZ
    dof rx ry rz
    limits (-20.0 45.0)
           (-30.0 30.0)
           (-30.0 30.0)
  end
  begin
     id 16
     name head
     direction 0.00252199 0.996513 -0.0833958  
     length 1.93887  
     axis 0 0 0   XYZ
    dof rx ry rz
    limits (-20.0 45.0)
           (-30.0 30.0)
           (-30.0 30.0)
  end
  begin
     id 17 
     name lclavicle
     direction 0.929492 0.368193 -0.0218667  
     length 3.5955  
     axis 0 0 0   XYZ
    dof ry rz
    limits (-20.0 10.0)
           (0.0 20.0)
  end
  begin
     id 18 
     name lhumerus
     direction 1 -4.48972e-011 1.41911e-027   
     length 5.2795   
     axis 180 -30 -90   XYZ
    dof rx ry rz
    limits (-60.0 90.0)
           (-90.0 90.0)
           (-90.0 90.0)
  end
  begin
     id 19
     name lradius
     direction 1 -4.48963e-011 7.05772e-027   
     length 3.53504   
     axis 180 -30 -90   XYZ
    dof rx
    limits (-10.0 170.0)
  end
  begin
     id 20
     name lwrist
     direction 1 -4.48957e-011 9.54866e-027   
     length 1.76752   
     axis -7.69462e-015 90 90   XYZ
    dof ry
    limits (-180.0 0.0)
 end
  begin
     id 21 
     name lhand
     direction 1 -4.48979e-011 1.90973e-026   
     length 0.667948   
     axis -1.21857e-014 90 90   XYZ
    dof rx rz
    limits (-90.0 90.0)
           (-45.0 45.0)
  end
  begin
     id 22 
     name lfingers
     direction 1 -4.48987e-011 3.81946e-026   
     length 0.538517   
     axis -2.43714e-014 90 90   XYZ
    dof rx
    limits (0.0 90.0)
  end
  begin
     id 23
     name lthumb
     direction 0.707107 -6.34962e-011 0.707107   
     length 0.773206   
     axis -90 45 2.85299e-015   XYZ
    dof rx rz
    limits (-45.0 45.0)
           (-45.0 45.0)
  end
  begin
     id 24 
     name rclavicle
     direction -0.898763 0.414256 -0.143584   
     length 3.5176  
     axis 0 0 0   XYZ 
    dof ry rz
    limits (-10.0 20.0)
           (-20.0 0.0)
  end
  begin
     id 25 
     name rhumerus
     direction -1 -4.48971e-011 1.129e-027  
     length 5.25035   
     axis 180 30 90   XYZ
    dof rx ry rz
    limits (-90.0 60.0)
           (-90.0 90.0)
           (-90.0 90.0)
  end
  begin
     id 26 
     name rradius
     direction -1 -4.48955e-011 6.34664e-027   
     length 3.58884   
     axis 180 30 90   XYZ
    dof rx
    limits (-10.0 170.0)
  end
  begin
     id 27 
     name rwrist
     direction -1 -4.48966e-011 9.54866e-027   
     length 1.79442   
     axis -7.69462e-015 -90 -90   XYZ
    dof ry
    limits (-180.0 0.0)
  end
  begin
     id 28
     name rhand
     direction -1 -4.48973e-011 1.90973e-026   
     length 0.779235   
     axis -1.21857e-014 -90 -90   XYZ
    dof rx rz
    limits (-90.0 90.0)
           (-45.0 45.0)
  end
  begin
     id 29
     name rfingers
     direction -1 -4.48984e-011 3.81946e-026   
     length 0.62824   
     axis -2.43714e-014 -90 -90   XYZ
    dof rx
    limits (0.0 90.0)
  end
  begin
     id 30
     name rthumb
     direction -0.707107 -6.34968e-011 0.707107   
     length 0.90203   
     axis -90 -45 -2.85299e-015   XYZ
    dof rx rz
    limits (-45.0 45.0)
           (-45.0 45.0)
  end
:hierarchy
  begin
    root lhipjoint rhipjoint lowerback
    lhipjoint lfemur
    lfemur ltibia
    ltibia lfoot
    lfoot ltoes
    rhipjoint rfemur
    rfemur rtibia
    rtibia rfoot
    rfoot rtoes
    lowerback upperback
    upperback thorax
    thorax lowerneck lclavicle rclavicle
    lowerneck upperneck
    upperneck head
    lclavicle lhumerus
    lhumerus lradius
    lradius lwrist
    lwrist lhand lthumb
    lhand lfingers
    rclavicle rhumerus
    rhumerus rradius
    rradius rwrist
    rwrist rhand rthumb
    rhand rfingers
  end

#!OML:ASF I:\Random Stuff\random\construction\7_22_03\Session 2\subj1.ASF
:FULLY-SPECIFIED
:DEGREES
396
root -21.8591 17.8083 -3.39937 -152.18 -0.543505 190.295
lowerback 16.4836 3.02917 -4.5045
upperback 2.79751 3.54215 -1.81998
thorax -6.372 1.98802 -0.181777
lowerneck -25.8307 0.618139 2.00914
upperneck 30.4541 -3.9489 6.94215
head 15.1564 -0.795018 1.65311
rclavicle -8.11041e-014 2.38542e-014
rhumerus 17.7743 33.6637 -80.3659
rradius 44.8747
rwrist -26.8188
rhand -27.692 12.4858
rfingers 7.12502
rthumb -1.08846 -17.4912
lclavicle -8.11041e-014 2.38542e-014
lhumerus 14.5304 -5.49965 83.4184
lradius 47.7203
lwrist 8.30593
lhand -23.5917 55.4408
lfingers 7.12502
lthumb 2.87164 -634.599
rfemur -13.3256 0.0409891 27.1718
rtibia 13.5565
rfoot -8.40831 -9.13339
rtoes -16.5277
lfemur -47.4803 3.22256 -10.4819
ltibia 32.4049
lfoot -10.8312 2.70137
ltoes -28.6241
397
root -21.9489 17.7998 -3.39317 -152.246 -0.648764 190.078
lowerback 16.6195 2.75871 -3.65648
upperback 2.78687 3.31782 -1.92397
thorax -6.39888 1.86036 -0.725177
lowerneck -25.3934 0.459674 1.85679
upperneck 30.1956 -4.21415 7.27531
head 14.9693 -0.901494 1.75382
rclavicle 1.35174e-014 1.11319e-014
rhumerus 17.4352 33.3144 -80.1527
rradius 45.172
rwrist -26.4783
rhand -26.5199 11.2886
rfingers 7.12502
rthumb 0.0436414 -18.6911
lclavicle 1.35174e-014 1.11319e-014
lhumerus 14.608 -5.10447 83.7513
lradius 47.0896
lwrist 9.25976
lhand -23.4533 55.5258
lfingers 7.12502
lthumb 3.00535 -634.516
rfemur -13.1978 -1.65657 27.4251
rtibia 14.3835
rfoot -8.38136 -8.77891
rtoes -16.1091
lfemur -47.4592 2.45383 -10.6987
ltibia 32.2806
lfoot -10.6565 3.25579
ltoes -28.9441
398
root -21.9964 17.8006 -3.40133 -152.261 -0.176318 190.163
lowerback 16.424 2.81101 -3.52964
upperback 2.76086 3.40928 -1.85817
thorax -6.31972 1.89734 -0.735902
lowerneck -24.6969 0.355683 1.71449
upperneck 29.6297 -4.33754 7.62387
head 14.5844 -0.955349 1.87885
rclavicle -2.38542e-014 7.95139e-016
rhumerus 16.7091 32.9333 -80.0686
rradius 45.6926
rwrist -25.587
rhand -25.2465 10.7136
rfingers 7.12502
rthumb 1.27348 -19.2623
lclavicle -2.38542e-014 7.95139e-016
lhumerus 14.5339 -4.29263 84.2769
lradius 46.4732
lwrist 9.99232
lhand -23.6675 55.5245
lfingers 7.12502
lthumb 2.79848 -634.514
rfemur -13.0305 -2.41476 27.7875
rtibia 15.0979
rfoot -8.16448 -8.66302
rtoes -15.028
lfemur -47.2455 2.61057 -10.8691
ltibia 32.164
lfoot -10.6393 3.55962
ltoes -29.3271
399
root -22.0196 17.8088 -3.41668 -152.3 0.6898 190.307
lowerback 16.1178 2.96717 -3.81724
upperback 2.72937 3.56985 -1.83315
thorax -6.20801 1.97634 -0.566286
lowerneck -24.9459 0.0676405 1.36458
upperneck 30.2907 -4.87979 7.84185
head 14.979 -1.19689 1.93434
rclavicle 7.95139e-016 7.79236e-014
rhumerus 15.8864 32.7622 -80.12
rradius 46.3676
rwrist -24.5405
rhand -24.5563 10.4685
rfingers 7.12502
rthumb 1.94014 -19.5025
lclavicle 7.95139e-016 7.79236e-014
lhumerus 14.2578 -3.34254 84.5216
lradius 46.071
lwrist 10.6129
lhand -24.2655 55.5848
lfingers 7.12502
lthumb 2.22095 -634.447
rfemur -12.8179 -2.54704 28.06
rtibia 15.7465
rfoot -7.81977 -8.78837
rtoes -15.0226
lfemur -46.7994 3.15922 -11.0758
ltibia 31.9998
lfoot -10.7219 3.84101
ltoes -29.3096
400
root -22.0362 17.8231 -3.43328 -152.394 1.58823 190.356
lowerback 15.7868 3.12563 -4.23201
upperback 2.72828 3.72032 -1.84478
thorax -6.05632 2.0543 -0.358935
lowerneck -24.4902 -0.00232178 1.35581
upperneck 30.0317 -5.08648 8.16297
head 14.7889 -1.27177 2.01628
rclavicle -5.56597e-015 6.20208e-014
rhumerus 14.8265 32.4787 -80.2859
rradius 47.3461
rwrist -23.6656
rhand -24.4173 10.3748
rfingers 7.12502
rthumb 2.07439 -19.5948
lclavicle -5.56597e-015 6.20208e-014
lhumerus 13.8784 -2.48382 84.6133
lradius 45.7985
lwrist 11.2829
lhand -25.012 55.762
lfingers 7.12502
lthumb 1.49995 -634.264
rfemur -12.5082 -2.63342 28.2252
rtibia 16.2108
rfoot -7.27403 -9.02016
rtoes -15.3376
lfemur -46.2324 3.37894 -11.188
ltibia 31.8286
lfoot -10.8266 4.49234
ltoes -29.4
401
root -22.0485 17.8404 -3.4543 -152.56 2.54067 190.332
lowerback 15.4195 3.32774 -4.71859
upperback 2.75271 3.92639 -1.8749
thorax -5.86453 2.16103 -0.138846
lowerneck -24.478 -0.30238 1.09998
upperneck 30.338 -5.65136 8.45464
head 14.9773 -1.51364 2.07246
rclavicle 5.08889e-014 -5.56597e-014
rhumerus 13.4224 31.9099 -80.5954
rradius 48.5384
rwrist -23.0411
rhand -24.4622 10.7504
rfingers 7.12502
rthumb 2.03093 -19.2197
lclavicle 5.08889e-014 -5.56597e-014
lhumerus 13.3157 -1.65639 84.824
lradius 45.7582
lwrist 11.8272
lhand -25.6839 55.9304
lfingers 7.12502
lthumb 0.851037 -634.092
rfemur -12.1509 -2.75774 28.2796
rtibia 16.68
rfoot -6.79851 -9.05605
rtoes -15.0316
lfemur -45.5509 3.63381 -11.4074
ltibia 31.6289
lfoot -10.9465 5.14136
ltoes -29.8179
402
root -22.0552 17.8516 -3.47786 -152.831 3.57006 190.331
lowerback 15.0905 3.43007 -5.18591
upperback 2.77625 4.00537 -1.92117
thorax -5.68937 2.20507 0.078243
lowerneck -24.1445 -0.368908 0.943787
upperneck 30.3851 -5.89845 8.82191
head 14.9644 -1.61787 2.19819
rclavicle 2.38542e-015 3.97569e-014
rhumerus 12.282 31.7706 -80.7321
rradius 49.721
rwrist -22.889
rhand -24.739 10.9943
rfingers 7.12502
rthumb 1.76369 -18.9782
lclavicle 2.38542e-015 3.97569e-014
lhumerus 12.53 -0.501587 84.9412
lradius 45.8804
lwrist 12.0826
lhand -26.1645 56.0765
lfingers 7.12502
lthumb 0.386876 -633.944
rfemur -11.7375 -2.7476 28.3174
rtibia 17.2191
rfoot -6.37739 -9.00395
rtoes -14.5902
lfemur -44.7577 4.36721 -11.8444
ltibia 31.4141
lfoot -11.1 5.34138
ltoes -30.5734
